<svg xmlns="http://www.w3.org/2000/svg" id="Layer_3" data-name="Layer 3" viewBox="0 0 473.62 386.3"><defs><style>.cls-1{fill:#fff;}.cls-1,.cls-3{stroke:#454545;stroke-miterlimit:10;stroke-width:10px;}.cls-2{fill:#454545;}.cls-3{fill:none;}</style></defs><g id="Layer_4" data-name="Layer 4"><rect class="cls-1" x="118.38" y="28.76" width="158.61" height="324.22" rx="1.38"/><circle class="cls-1" cx="200.32" cy="272.72" r="61.1"/><path class="cls-1" d="M364.06,249.53H204.45a16.76,16.76,0,0,0-1.74.11c-.69-.06-1.39-.11-2.1-.11a23.19,23.19,0,0,0,0,46.38,20.79,20.79,0,0,0,2.1-.11,14.39,14.39,0,0,0,1.74.11H364.06a15.4,15.4,0,0,0,15.35-15.35V264.88A15.4,15.4,0,0,0,364.06,249.53Z"/></g><g id="Layer_2" data-name="Layer 2"><path class="cls-1" d="M280.52,177H159.85a17.63,17.63,0,0,1-17.58-17.58V96.52a17.63,17.63,0,0,1,17.58-17.58H280.52A17.63,17.63,0,0,1,298.1,96.52v62.9A17.63,17.63,0,0,1,280.52,177Z"/><g id="Layer_3-2" data-name="Layer 3"><path class="cls-1" d="M269.7,74.56s12-19,17-19.92,49.81.59,53.62,2.64,36,36.92,41.31,61-6.74,43.07-9.08,47.47S357,185.91,343.82,190.6s-28.42-1.76-32.81-5-20.8-14.06-28.42-24.61-24-15.82-24-15.82-11.18-1.76-15.25-6.16-7-5-6.43-14.35,9.38-13.78,12-14.06,12.31-2.06,20.22,1.46,30.47,16.7,30.47,16.7,8.2,5,11.72,2.64,4.1-5,3.8-13.19,1.17-14.94-.29-16.11S299.28,98,299.28,98L296.4,91.9a17.47,17.47,0,0,0-2.15-3.47l-.94-1.2c-1.41-1.79-2.55-3.85-4.54-5l-1.83-.88c-2.66-1.5-5.85-1.76-8.89-2L272,79l-4.69-.3Z"/><polygon class="cls-2" points="309.88 100.45 299.29 98.01 298.09 104.53 298.09 116.83 299.58 128.77 306.45 131.41 311.3 131.41 313.95 128.7 314.82 123.32 314.82 102.11 309.88 100.45"/></g></g><g id="Layer_6" data-name="Layer 6"><line class="cls-3" x1="142.27" y1="147.5" x2="264.17" y2="147.5"/><line class="cls-3" x1="145.08" y1="153.67" x2="275.05" y2="153.67"/><line class="cls-3" x1="145.24" y1="159.84" x2="282.59" y2="159.84"/></g></svg>