<svg xmlns="http://www.w3.org/2000/svg" id="Layer_4" data-name="Layer 4" viewBox="0 0 473.62 386.3"><defs><style>.cls-1,.cls-3{fill:none;stroke-linecap:round;}.cls-1,.cls-3,.cls-4,.cls-5,.cls-6{stroke:#454545;}.cls-1{stroke-linejoin:round;stroke-width:6px;}.cls-2,.cls-4,.cls-6{fill:#fff;}.cls-3,.cls-4,.cls-5,.cls-6{stroke-miterlimit:10;}.cls-3,.cls-5{stroke-width:12px;}.cls-4{stroke-width:8px;}.cls-5{fill:#454545;}.cls-6{stroke-width:5px;}</style></defs><g id="Layer_7" data-name="Layer 7"><line class="cls-1" x1="159.3" y1="128.24" x2="160.07" y2="341.44"/><line class="cls-1" x1="79.51" y1="129.63" x2="80.27" y2="340.83"/><line class="cls-1" x1="106.11" y1="129.63" x2="106.87" y2="340.63"/><line class="cls-1" x1="132.7" y1="128.24" x2="133.47" y2="340.61"/><line class="cls-1" x1="52.91" y1="129.88" x2="53.67" y2="340.44"/><line class="cls-1" x1="26.3" y1="128.24" x2="27.07" y2="341.44"/><line class="cls-1" x1="26.3" y1="128.24" x2="159.3" y2="128.24"/><line class="cls-1" x1="27.07" y1="342.55" x2="160.07" y2="342.55"/><path class="cls-1" d="M9.33,107.8H177a3.09,3.09,0,0,1,3,3.17v246.9a3.08,3.08,0,0,1-3,3.16H9.33a3.07,3.07,0,0,1-3-3.16V111A3.08,3.08,0,0,1,9.33,107.8Z"/><path class="cls-1" d="M32.18,361.1H45.53a13.35,13.35,0,0,1-26.7.36v-.41Z"/><path class="cls-1" d="M154.25,361.44h13.34a13.35,13.35,0,1,1-26.69.37h0v-.51Z"/></g><g id="Layer_11" data-name="Layer 11"><path class="cls-2" d="M348.34,128.14,243.75,224.51A136.67,136.67,0,0,1,244.56,31Z"/><path class="cls-3" d="M263.07,207.15c-44.71-43.3-44.71-113.38,0-156.68"/><path class="cls-3" d="M282.49,179a69,69,0,0,1,0-99.77"/><path class="cls-2" d="M338.84,129.09l89.4-82.63a117,117,0,0,1-.55,165.81Z"/><path class="cls-3" d="M423.55,51.45c44.7,43.3,44.7,113.38,0,156.68"/><path class="cls-3" d="M404.13,79.63a69,69,0,0,1,0,99.77"/><path class="cls-4" d="M307.74,64.17h70.19a3.8,3.8,0,0,1,3.9,3.69v207a3.8,3.8,0,0,1-3.9,3.69H307.74a3.8,3.8,0,0,1-3.91-3.69V67.86A3.8,3.8,0,0,1,307.74,64.17Z"/><ellipse class="cls-5" cx="342.83" cy="127.17" rx="20" ry="19.37"/><path class="cls-6" d="M271,300.59,236,274.33,236.1,288H145.56a2,2,0,0,0-2.09,1.82v21.73a2,2,0,0,0,2.09,1.82h90.68l.08,13.69Z"/></g></svg>